<?xml version="1.0" encoding="UTF-8"?>
<svg id="Layer_1" data-name="Layer 1" xmlns="http://www.w3.org/2000/svg" viewBox="0 0 50 50">
  <path d="M24.99,2c-8.26,0-14.99,6.66-14.99,14.82,0,4.41,1.98,9.7,5.1,13.65v3.71c0,1.13,.74,2.04,1.65,2.04h16.5c.91,0,1.65-.91,1.65-2.04v-3.72c3.12-3.94,5.1-9.24,5.1-13.65,0-8.16-6.74-14.82-15.01-14.82Zm0,3.26c6.48,0,11.7,5.16,11.7,11.56,0,3.47-1.48,7.91-3.89,11.25h-15.61c-2.41-3.35-3.89-7.78-3.89-11.25,0-6.4,5.21-11.56,11.69-11.56Z"/>
  <path d="M17.99,37.84c-.91,0-1.65,.73-1.65,1.63s.74,1.63,1.65,1.63h14.02c.91,0,1.65-.73,1.65-1.63s-.74-1.63-1.65-1.63h-14.02Z"/>
  <path d="M19.93,42.74c-.91,.04-1.61,.81-1.57,1.71,.04,.9,.82,1.59,1.73,1.55h9.9c.91,0,1.65-.73,1.65-1.63s-.74-1.63-1.65-1.63h-9.9c-.05,0-.11,0-.16,0Z"/>
</svg>
