<?xml version="1.0" encoding="UTF-8"?>
<svg id="Layer_1" data-name="Layer 1" xmlns="http://www.w3.org/2000/svg" viewBox="0 0 180.74 45.2">
  <defs>
    <style>
      .cls-1 {
        fill: #fff;
      }

      .cls-2 {
        fill: #4711de;
      }
    </style>
  </defs>
  <g id="Layer_2" data-name="Layer 2">
    <g id="Layer_1-2" data-name="Layer 1-2">
      <rect class="cls-2" width="180.74" height="45.2" rx="6.53" ry="6.53"/>
      <g>
        <path class="cls-1" d="M28.14,16.65h6.43v1.73h-4.44v2.61h3.79v1.71h-3.79v2.73h4.59v1.72h-6.58v-10.5Z"/>
        <path class="cls-1" d="M38.36,23.06l-2.5-3.79h2.15l1.54,2.49h.09l1.53-2.49h2.15l-2.49,3.83,2.7,4.06h-2.16l-1.73-2.67h-.12l-1.72,2.67h-2.15l2.71-4.09Z"/>
        <path class="cls-1" d="M43.97,23.25c0-2.48,1.5-4.19,3.66-4.19,1.36,0,2.13,.81,2.4,1.21h.1v-1.02h1.95v7.89h-1.92v-1h-.1c-.23,.33-.93,1.2-2.37,1.2-2.21,0-3.72-1.65-3.72-4.09Zm6.21-.03c0-1.48-.9-2.39-2.13-2.39s-2.1,.99-2.1,2.39,.85,2.37,2.12,2.37,2.11-1.05,2.11-2.37Z"/>
        <path class="cls-1" d="M54.08,19.26h1.86v.96h.1c.35-.6,1.06-1.15,2.15-1.15s1.89,.46,2.34,1.2h.12c.54-.82,1.32-1.2,2.34-1.2,1.74,0,2.88,1.18,2.88,2.85v5.23h-1.95v-4.56c0-1.08-.5-1.7-1.43-1.7s-1.53,.68-1.53,1.74v4.51h-1.95v-4.68c0-.96-.57-1.58-1.47-1.58s-1.51,.72-1.51,1.73v4.53h-1.95v-7.89Z"/>
        <path class="cls-1" d="M67.86,19.26h1.92v1h.1c.21-.33,.93-1.2,2.37-1.2,2.2,0,3.72,1.65,3.72,4.11s-1.5,4.17-3.66,4.17c-1.4,0-2.15-.78-2.4-1.21h-.1v4.47h-1.95v-11.34Zm6.13,3.95c0-1.44-.85-2.37-2.13-2.37s-2.1,1.04-2.1,2.37c0,1.47,.9,2.37,2.12,2.37s2.11-.98,2.11-2.37Z"/>
        <path class="cls-1" d="M77.46,24.93V15.9h1.95v8.85c0,.45,.22,.69,.63,.69h.31v1.71h-.73c-1.38,0-2.16-.83-2.16-2.22Z"/>
        <path class="cls-1" d="M81.44,23.25c0-2.49,1.67-4.19,3.97-4.19,2.54,0,3.92,1.87,3.92,4.1v.61h-6c.06,1.2,.89,2.01,2.15,2.01,.96,0,1.7-.45,1.96-1.1h1.81c-.39,1.61-1.8,2.66-3.84,2.66-2.32,0-3.97-1.74-3.97-4.09Zm6.03-.86c-.09-1.06-.92-1.77-2.06-1.77s-1.93,.78-2.05,1.77h4.11Z"/>
        <path class="cls-1" d="M90.6,24.78h1.8c.08,.68,.62,1.04,1.5,1.04s1.41-.39,1.41-.94c0-1.68-4.53-.09-4.53-3.39,0-1.33,1.16-2.41,3.11-2.41,1.71,0,2.98,.87,3.1,2.44h-1.72c-.09-.57-.54-.95-1.4-.95-.79,0-1.3,.35-1.3,.85,0,1.5,4.63-.07,4.63,3.35,0,1.5-1.21,2.58-3.33,2.58s-3.19-1-3.27-2.57Z"/>
        <path class="cls-1" d="M109.49,27.15l-.57-.63c-.78,.51-1.74,.83-2.79,.83-1.92,0-3.63-1.08-3.63-3.12,0-1.17,.62-2.06,1.86-2.76-.53-.62-1-1.38-1-2.33,0-1.46,1.14-2.68,2.92-2.68s2.89,1.17,2.91,2.65c.02,1.32-.78,2.07-1.88,2.64l-.24,.14,1.9,2.07c.44-.75,.63-1.7,.42-2.73h1.73c.31,1.46-.06,2.94-.92,4.08l1.69,1.84h-2.41Zm-1.75-1.93l-2.25-2.49c-.66,.34-1.08,.79-1.08,1.5,0,.79,.75,1.42,1.74,1.42,.57,0,1.11-.17,1.59-.43Zm-2.55-6.04c0,.57,.27,.96,.75,1.47l.45-.24c.76-.38,.99-.71,.99-1.26s-.39-1.03-1.09-1.03c-.65,0-1.1,.48-1.1,1.06Z"/>
        <path class="cls-1" d="M117.41,16.65h3.54c3.34,0,5.36,2.16,5.36,5.22,0,3.26-2.01,5.28-5.36,5.28h-3.54v-10.5Zm3.46,8.76c1.85,0,3.36-1.08,3.36-3.54s-1.5-3.48-3.36-3.48h-1.47v7.02h1.47Z"/>
        <path class="cls-1" d="M127.56,23.21c0-2.34,1.71-4.14,4.2-4.14s4.2,1.8,4.2,4.14-1.74,4.14-4.2,4.14-4.2-1.79-4.2-4.14Zm6.42,0c0-1.37-.93-2.37-2.22-2.37s-2.22,1.01-2.22,2.37,.93,2.37,2.22,2.37,2.22-.99,2.22-2.37Z"/>
        <path class="cls-1" d="M137.19,23.21c0-2.33,1.65-4.14,4.12-4.14,2.02,0,3.6,1.24,3.9,3.1h-2c-.24-.78-.97-1.33-1.89-1.33-1.32,0-2.16,1.05-2.16,2.37s.88,2.37,2.17,2.37c.9,0,1.63-.51,1.86-1.28h2c-.3,1.83-1.86,3.04-3.88,3.04-2.48,0-4.12-1.82-4.12-4.14Z"/>
        <path class="cls-1" d="M146.49,24.78h1.8c.08,.68,.62,1.04,1.5,1.04s1.41-.39,1.41-.94c0-1.68-4.53-.09-4.53-3.39,0-1.33,1.16-2.41,3.11-2.41,1.71,0,2.98,.87,3.1,2.44h-1.72c-.09-.57-.54-.95-1.4-.95-.79,0-1.3,.35-1.3,.85,0,1.5,4.63-.07,4.63,3.35,0,1.5-1.21,2.58-3.33,2.58s-3.19-1-3.27-2.57Z"/>
      </g>
    </g>
  </g>
</svg>